<svg width="20" height="15" viewBox="0 0 20 15" fill="none" xmlns="http://www.w3.org/2000/svg">
<path d="M19.1116 5.68348C18.8971 5.68348 18.7231 5.85666 18.7231 6.07029V6.76872H17.994V6.36516C17.994 5.53727 17.3176 4.86375 16.4862 4.86375H14.8785H12.6269L11.9161 2.21855C11.9158 2.21727 11.9154 2.21604 11.9151 2.21476C11.7034 1.45762 11.4497 0.942811 11.1166 0.594566C10.7339 0.194488 10.2382 0 9.60103 0H7.99974C7.88383 0 7.77394 0.0515619 7.70017 0.140567C7.6264 0.229611 7.59638 0.346775 7.61832 0.460111L8.47174 4.86371H8.36608H2.85271V3.02134C2.85271 2.8077 2.67876 2.63453 2.46426 2.63453H0.388446C0.173946 2.63453 0 2.8077 0 3.02134V5.25052C0 5.39631 0.086002 5.5334 0.217297 5.59776L8.01182 9.40769C8.06508 9.43372 8.12365 9.44726 8.18297 9.44726H8.66662L7.61929 14.5355C7.59583 14.6494 7.62504 14.7676 7.69881 14.8577C7.77258 14.9477 7.88313 15 7.99982 15H9.65868C10.7365 15 11.559 14.2131 11.9157 12.8407L12.8957 9.44726H14.8785H16.4863C17.3177 9.44726 17.994 8.77371 17.994 7.94586V7.5423H18.7231V9.55592C18.7231 9.76955 18.8971 9.94273 19.1116 9.94273C19.3261 9.94273 19.5 9.76955 19.5 9.55592V6.07025C19.5 5.85666 19.3261 5.68348 19.1116 5.68348ZM8.47038 0.773698H9.60107C10.3172 0.773698 10.7788 1.03615 11.1662 2.42047L11.8227 4.86379H11.5409H9.26304L8.47038 0.773698ZM11.0879 5.63745C10.9261 6.1065 10.4787 6.44453 9.95351 6.44453C9.42833 6.44453 8.98088 6.1065 8.81913 5.63745H11.0879ZM0.776892 3.40819H2.07582V4.86375H0.776892V3.40819ZM14.4901 8.67372H13.1191H12.3107L12.0873 9.4473L11.1676 12.632C11.1666 12.6354 11.1657 12.6389 11.1648 12.6424C11.0117 13.2339 10.6124 14.2264 9.65868 14.2264H8.47597L9.45968 9.4473L9.6189 8.67368H8.82589H8.2732L2.06133 5.63745H2.46426H8.01621C8.19719 6.53771 8.99696 7.21815 9.95351 7.21815C10.9101 7.21815 11.7098 6.53771 11.8908 5.63745H14.4901V8.67372ZM17.2171 7.9459C17.2171 8.34721 16.8893 8.67368 16.4862 8.67368H15.2669V5.63737H16.4862C16.8893 5.63737 17.2171 5.96384 17.2171 6.36516V7.9459Z" fill="white"/>
<path d="M19.125 4.12487C18.9179 4.12487 18.75 4.28226 18.75 4.47643V4.8983C18.75 5.09247 18.9179 5.24987 19.125 5.24987C19.332 5.24987 19.5 5.09247 19.5 4.8983V4.47643C19.5 4.28226 19.332 4.12487 19.125 4.12487Z" fill="white"/>
<path d="M10.9362 7.88236C10.7259 7.84012 10.5222 7.98075 10.4811 8.1963L10.132 10.0257C10.0908 10.2413 10.2279 10.4502 10.4382 10.4924C10.4633 10.4974 10.4884 10.4999 10.5131 10.4999C10.6948 10.4999 10.8571 10.3682 10.8933 10.1784L11.2424 8.34902C11.2835 8.13347 11.1464 7.92459 10.9362 7.88236Z" fill="white"/>
<path d="M10.0968 10.8815C9.82589 10.8454 9.5642 10.9659 9.51131 11.1506L9.38438 11.5937C9.3314 11.7785 9.50777 11.9576 9.77819 11.9937C9.81057 11.9981 9.8428 12.0001 9.87458 12.0001C10.1084 12.0001 10.3171 11.8873 10.3637 11.7246L10.4906 11.2815C10.5435 11.0967 10.3672 10.9177 10.0968 10.8815Z" fill="white"/>
</svg>
