<svg width="29" height="22" viewBox="0 0 29 22" fill="none" xmlns="http://www.w3.org/2000/svg">
<path d="M28.0303 8.33577C27.7157 8.33577 27.4606 8.58976 27.4606 8.90309V9.92745H26.3912V9.33556C26.3912 8.12132 25.3992 7.1335 24.1798 7.1335H21.8218H18.5194L17.477 3.25387C17.4765 3.252 17.476 3.25019 17.4755 3.24831C17.165 2.13784 16.7929 1.38279 16.3044 0.87203C15.7431 0.285249 15.0161 0 14.0815 0H11.733C11.5629 0 11.4018 0.0756241 11.2936 0.206165C11.1854 0.336762 11.1414 0.508604 11.1735 0.674829L12.4252 7.13345H12.2703H4.18398V4.43129C4.18398 4.11796 3.92885 3.86397 3.61425 3.86397H0.569721C0.255121 3.86397 0 4.11796 0 4.43129V7.70077C0 7.91459 0.126136 8.11565 0.318702 8.21005L11.7507 13.7979C11.8288 13.8361 11.9147 13.856 12.0017 13.856H12.711L11.175 21.3188C11.1406 21.4857 11.1834 21.6592 11.2916 21.7913C11.3998 21.9234 11.5619 22 11.7331 22H14.1661C15.7469 22 16.9531 20.8458 17.4764 18.833L18.9137 13.856H21.8219H24.1799C25.3993 13.856 26.3912 12.8681 26.3912 11.6539V11.062H27.4606V14.0153C27.4606 14.3287 27.7157 14.5827 28.0303 14.5827C28.3449 14.5827 28.6 14.3287 28.6 14.0153V8.90304C28.6 8.58976 28.3449 8.33577 28.0303 8.33577ZM12.4232 1.13476H14.0816C15.1319 1.13476 15.8089 1.51968 16.3771 3.55002L17.3399 7.13356H16.9267H13.5858L12.4232 1.13476ZM16.2622 8.26826C16.025 8.95619 15.3687 9.45198 14.5985 9.45198C13.8282 9.45198 13.172 8.95619 12.9347 8.26826H16.2622ZM1.13944 4.99867H3.04453V7.1335H1.13944V4.99867ZM21.2521 12.7215H19.2413H18.0557L17.728 13.856L16.3791 18.5269C16.3777 18.532 16.3763 18.537 16.375 18.5421C16.1505 19.4098 15.5648 20.8654 14.1661 20.8654H12.4314L13.8742 13.856L14.1077 12.7214H12.9446H12.134L3.02328 8.26826H3.61425H11.7571C12.0225 9.58864 13.1955 10.5866 14.5985 10.5866C16.0014 10.5866 17.1744 9.58864 17.4398 8.26826H21.2521V12.7215ZM25.2518 11.654C25.2518 12.2426 24.7709 12.7214 24.1798 12.7214H22.3915V8.26815H24.1798C24.7709 8.26815 25.2518 8.74697 25.2518 9.33556V11.654Z" fill="#FF2479"/>
<path d="M28.0498 6.05C27.7461 6.05 27.4998 6.28084 27.4998 6.56562V7.18437C27.4998 7.46915 27.7461 7.7 28.0498 7.7C28.3535 7.7 28.5998 7.46915 28.5998 7.18437V6.56562C28.5998 6.28084 28.3535 6.05 28.0498 6.05Z" fill="#FF2479"/>
<path d="M16.04 11.561C15.7315 11.499 15.4328 11.7053 15.3725 12.0214L14.8605 14.7046C14.8001 15.0207 15.0013 15.3271 15.3096 15.389C15.3465 15.3964 15.3832 15.4 15.4194 15.4C15.686 15.4 15.924 15.2069 15.9771 14.9286L16.4891 12.2454C16.5494 11.9293 16.3483 11.6229 16.04 11.561Z" fill="#FF2479"/>
<path d="M14.8084 15.9594C14.4111 15.9064 14.0273 16.0831 13.9497 16.3541L13.7636 17.004C13.6859 17.2749 13.9446 17.5376 14.3412 17.5906C14.3887 17.597 14.4359 17.6 14.4825 17.6C14.8255 17.6 15.1316 17.4345 15.1999 17.1959L15.3861 16.5461C15.4636 16.275 15.205 16.0124 14.8084 15.9594Z" fill="#FF2479"/>
</svg>
